<!DOCTYPE svg PUBLIC "-//W3C//DTD SVG 1.1//EN" "http://www.w3.org/Graphics/SVG/1.1/DTD/svg11.dtd">
<!-- Uploaded to: SVG Repo, www.svgrepo.com, Transformed by: SVG Repo Mixer Tools -->
<svg width="256px" height="256px" viewBox="0 0 24 24" fill="none" xmlns="http://www.w3.org/2000/svg">
<g id="SVGRepo_bgCarrier" stroke-width="0"/>
<g id="SVGRepo_tracerCarrier" stroke-linecap="round" stroke-linejoin="round"/>
<g id="SVGRepo_iconCarrier"> <path d="M3 7C3 4.79086 4.79086 3 7 3H17C19.2091 3 21 4.79086 21 7V17C21 19.2091 19.2091 21 17 21H7C4.79086 21 3 19.2091 3 17V7Z" stroke="#ffffff" stroke-width="2"/> <path d="M15.048 8.65798C15.3918 8.48607 15.7565 8.85082 15.5846 9.19464L12.338 15.6879C12.1515 16.0608 11.6174 16.0551 11.4389 15.6783L11.1265 15.0187C10.731 14.1838 10.0587 13.5116 9.22387 13.1161L8.56428 12.8037C8.18747 12.6252 8.18179 12.0911 8.55471 11.9046L15.048 8.65798Z" stroke="#ffffff" stroke-width="2" stroke-linecap="round" stroke-linejoin="round"/> </g>
</svg>